<?xml version="1.0" encoding="UTF-8"?>
<svg width="97px" height="97px" viewBox="0 0 97 97" version="1.1" xmlns="http://www.w3.org/2000/svg" xmlns:xlink="http://www.w3.org/1999/xlink">
    <!-- Generator: Sketch 62 (91390) - https://sketch.com -->
    <title>social instagram</title>
    <desc>Created with Sketch.</desc>
    <g id="Lasell-assets" stroke="none" stroke-width="1" fill="none" fill-rule="evenodd">
        <g id="social-icons-(svgs)" transform="translate(-348.000000, -138.000000)" fill="#FFFFFF" fill-rule="nonzero">
            <path d="M396.5,162 C382.94198,162 372,172.94198 372,186.5 C372,200.05802 382.94198,211 396.5,211 C410.05802,211 421,200.05802 421,186.5 C421,172.94198 410.05802,162 396.5,162 Z M396.5,203 C387.414479,203 380,195.585521 380,186.5 C380,177.414479 387.414479,170 396.5,170 C405.585521,170 413,177.414479 413,186.5 C413,195.585521 405.585521,203 396.5,203 Z M422.5,155 C419.457202,155 417,157.457206 417,160.5 C417,163.542798 419.457202,166 422.5,166 C425.542794,166 428,163.554281 428,160.5 C428.001827,159.040751 427.422953,157.640741 426.391106,156.608894 C425.359259,155.577047 423.959249,154.998173 422.5,155 Z M444.994585,186.5 C444.994585,179.802475 445.05525,173.165616 444.679128,166.480224 C444.303006,158.714977 442.531592,151.823321 436.853361,146.144985 C431.162997,140.454515 424.283602,138.695201 416.518501,138.319072 C409.8211,137.942943 403.184365,138.003609 396.499097,138.003609 C389.801697,138.003609 383.164961,137.942943 376.479694,138.319072 C368.714592,138.695201 361.823064,140.466648 356.144833,146.144985 C350.454469,151.835454 348.695188,158.714977 348.319066,166.480224 C347.942944,173.177749 348.003609,179.814608 348.003609,186.5 C348.003609,193.185392 347.942944,199.834384 348.319066,206.519776 C348.695188,214.285023 350.466602,221.176679 356.144833,226.855015 C361.835197,232.545485 368.714592,234.304799 376.479694,234.680928 C383.177094,235.057057 389.81383,234.996391 396.499097,234.996391 C403.196497,234.996391 409.833233,235.057057 416.518501,234.680928 C424.283602,234.304799 431.17513,232.533352 436.853361,226.855015 C442.543725,221.164546 444.303006,214.285023 444.679128,206.519776 C445.067383,199.834384 444.994585,193.197525 444.994585,186.5 Z M433.99703,214.85728 C433.119133,217.046009 432.060846,218.681544 430.365182,220.365182 C428.669518,222.060846 427.046009,223.119133 424.85728,223.99703 C418.53161,226.510462 403.511151,225.94524 396.5,225.94524 C389.488849,225.94524 374.456364,226.510462 368.130694,224.009056 C365.941965,223.131159 364.30643,222.072872 362.622792,220.377208 C360.927128,218.681544 359.868841,217.058035 358.990944,214.869306 C356.489538,208.53161 357.05476,193.511151 357.05476,186.5 C357.05476,179.488849 356.489538,164.456364 358.990944,158.130694 C359.868841,155.941965 360.927128,154.30643 362.622792,152.622792 C364.318456,150.939154 365.941965,149.868841 368.130694,148.990944 C374.456364,146.489538 389.488849,147.05476 396.5,147.05476 C403.511151,147.05476 418.543636,146.489538 424.869306,148.990944 C427.058035,149.868841 428.69357,150.927128 430.377208,152.622792 C432.072872,154.318456 433.131159,155.941965 434.009056,158.130694 C436.510462,164.456364 435.94524,179.488849 435.94524,186.5 C435.94524,193.511151 436.510462,208.53161 433.99703,214.85728 Z" id="social-instagram"></path>
        </g>
    </g>
</svg>