<?xml version="1.0" encoding="UTF-8"?>
<svg width="123px" height="98px" viewBox="0 0 123 98" version="1.1" xmlns="http://www.w3.org/2000/svg" xmlns:xlink="http://www.w3.org/1999/xlink">
    <!-- Generator: Sketch 62 (91390) - https://sketch.com -->
    <title>social twitter</title>
    <desc>Created with Sketch.</desc>
    <g id="Lasell-assets" stroke="none" stroke-width="1" fill="none" fill-rule="evenodd">
        <g id="social-icons-(svgs)" transform="translate(-574.000000, -137.000000)" fill="#FFFFFF" fill-rule="nonzero">
            <path d="M683.709511,161.395156 C683.762554,162.456953 683.782446,163.531859 683.782446,164.593657 C683.782446,197.299638 658.606685,235 612.571576,235 C598.428859,235 585.280707,230.903559 574.20125,223.877345 C587.436499,225.459488 600.765197,221.776528 611.25212,213.63952 C600.546435,213.439475 591.152426,206.536754 587.873207,196.460687 C591.626441,197.154496 595.489194,197.008927 599.178098,196.034657 C587.498545,193.693537 579.103113,183.544484 579.101141,171.764066 L579.101141,171.456014 C582.576791,173.367249 586.464005,174.430139 590.439185,174.5562 C579.42684,167.298939 576.033386,152.821211 582.694837,141.515949 C595.403971,156.97771 614.157689,166.376753 634.28625,167.372682 C633.855653,165.521863 633.639877,163.628557 633.643098,161.729425 C633.643098,155.169647 636.279681,148.878636 640.972643,144.240787 C645.665606,139.602937 652.030387,136.998294 658.666359,137 C665.588148,136.988874 672.204748,139.815394 676.939837,144.80621 C682.543434,143.709664 687.917698,141.6795 692.832989,138.802467 C690.963539,144.532267 687.052129,149.395671 681.826467,152.487855 C686.787748,151.906448 691.633034,150.594153 696.20125,148.594598 C692.845301,153.565625 688.614366,157.901156 683.709511,161.395156 L683.709511,161.395156 Z" id="social-twitter"></path>
        </g>
    </g>
</svg>