<?xml version="1.0" encoding="UTF-8"?>
<svg width="110px" height="109px" viewBox="0 0 110 109" version="1.1" xmlns="http://www.w3.org/2000/svg" xmlns:xlink="http://www.w3.org/1999/xlink">
    <!-- Generator: Sketch 62 (91390) - https://sketch.com -->
    <title>social linkedin</title>
    <desc>Created with Sketch.</desc>
    <g id="Lasell-assets" stroke="none" stroke-width="1" fill="none" fill-rule="evenodd">
        <g id="social-icons-(svgs)" transform="translate(-825.000000, -122.000000)" fill="#FFFFFF" fill-rule="nonzero">
            <path d="M849.4025,231 L827.4025,231 L827.4025,158 L849.4025,158 L849.4025,231 Z M838.9025,149 C831.449793,149 825.4025,142.853464 825.4025,135.436057 C825.4025,128.015528 831.446656,122 838.9025,122 C846.358344,122 852.4025,128.015528 852.4025,135.436057 C852.4025,142.853464 846.355207,149 838.9025,149 L838.9025,149 Z M934.382881,231 L911.656603,231 L911.656603,195.859364 C911.656603,187.483536 911.483959,176.744403 899.814769,176.744403 C887.972934,176.744403 886.156244,185.842352 886.156244,195.256954 L886.156244,231 L863.4025,231 L863.4025,158.811094 L885.245937,158.811094 L885.245937,168.658195 L885.56376,168.658195 C888.604655,162.985493 896.032287,157 907.112917,157 C930.164865,157 934.4025,171.940563 934.4025,191.345144 L934.4025,231 L934.382881,231 Z" id="social-linkedin"></path>
        </g>
    </g>
</svg>